<?xml version="1.0" encoding="UTF-8"?>
<svg width="24px" height="24px" viewBox="0 0 24 24" version="1.1" xmlns="http://www.w3.org/2000/svg" xmlns:xlink="http://www.w3.org/1999/xlink">
    <title>AI Assistant</title>
    <g id="AI-Assistant" stroke="none" stroke-width="1" fill="none" fill-rule="evenodd">
        <path d="M12,2 C6.48,2 2,6.48 2,12 C2,17.52 6.48,22 12,22 C17.52,22 22,17.52 22,12 C22,6.48 17.52,2 12,2 Z" id="Circle" stroke="#00FF00" stroke-width="1.5" fill-opacity="0.2" fill="#00FF00"></path>
        <path d="M12,6 C10.9391,6 9.92172,6.42143 9.17157,7.17157 C8.42143,7.92172 8,8.93913 8,10 L8,11 C8,12.0609 8.42143,13.0783 9.17157,13.8284 C9.92172,14.5786 10.9391,15 12,15 C13.0609,15 14.0783,14.5786 14.8284,13.8284 C15.5786,13.0783 16,12.0609 16,11 L16,10 C16,8.93913 15.5786,7.92172 14.8284,7.17157 C14.0783,6.42143 13.0609,6 12,6 Z" id="Head" stroke="#00FF00" stroke-width="1.5" fill-opacity="0.3" fill="#00FF00"></path>
        <path d="M7,18 C7,16.3431 9.23858,15 12,15 C14.7614,15 17,16.3431 17,18" id="Base" stroke="#00FF00" stroke-width="1.5" stroke-linecap="round"></path>
        <circle id="Eye-Left" fill="#00FF00" cx="10" cy="10" r="1"></circle>
        <circle id="Eye-Right" fill="#00FF00" cx="14" cy="10" r="1"></circle>
        <path d="M9,13 C9,13 10,13.5 12,13.5 C14,13.5 15,13 15,13" id="Smile" stroke="#00FF00" stroke-width="1.5" stroke-linecap="round"></path>
        <path d="M18,9 L20,9" id="Antenna-Right" stroke="#00FF00" stroke-width="1.5" stroke-linecap="round"></path>
        <path d="M4,9 L6,9" id="Antenna-Left" stroke="#00FF00" stroke-width="1.5" stroke-linecap="round"></path>
        <path d="M12,4 L12,2" id="Antenna-Top" stroke="#00FF00" stroke-width="1.5" stroke-linecap="round"></path>
    </g>
</svg>
